<svg width="301" height="201" viewBox="0 0 301 201" fill="none" xmlns="http://www.w3.org/2000/svg">
<path d="M260 161.96H60V162.06H260V161.96Z" fill="#E0E0E0"/>
<path d="M107.86 166.196H94.3641V166.296H107.86V166.196Z" fill="#E0E0E0"/>
<path d="M91.4279 166.244H83.4199V166.344H91.4279V166.244Z" fill="#E0E0E0"/>
<path d="M181.248 164.1H143.332V164.2H181.248V164.1Z" fill="#E0E0E0"/>
<path d="M127.112 169.032H115.024V169.132H127.112V169.032Z" fill="#E0E0E0"/>
<path d="M225.468 165.476H194V165.576H225.468V165.476Z" fill="#E0E0E0"/>
<path d="M154.8 144.12H77.564C76.9589 144.119 76.379 143.878 75.9516 143.45C75.5241 143.021 75.284 142.441 75.284 141.836V33.264C75.2893 32.6624 75.5317 32.0872 75.9586 31.6633C76.3855 31.2394 76.9624 31.001 77.564 31H154.8C155.406 31 155.987 31.2406 156.415 31.669C156.843 32.0973 157.084 32.6782 157.084 33.284V141.836C157.084 142.442 156.843 143.023 156.415 143.451C155.987 143.879 155.406 144.12 154.8 144.12ZM77.564 31.08C76.9855 31.0811 76.431 31.3116 76.0223 31.7211C75.6135 32.1306 75.384 32.6855 75.384 33.264V141.836C75.384 142.415 75.6135 142.969 76.0223 143.379C76.431 143.788 76.9855 144.019 77.564 144.02H154.8C155.379 144.019 155.934 143.789 156.343 143.379C156.752 142.97 156.983 142.415 156.984 141.836V33.264C156.983 32.6851 156.752 32.1302 156.343 31.7208C155.934 31.3115 155.379 31.0811 154.8 31.08H77.564Z" fill="#E0E0E0"/>
<path d="M241.324 144.12H164.084C163.479 144.119 162.898 143.878 162.47 143.45C162.042 143.022 161.801 142.441 161.8 141.836V33.264C161.806 32.662 162.05 32.0868 162.477 31.663C162.905 31.2392 163.482 31.001 164.084 31H241.324C241.925 31.0021 242.501 31.2409 242.927 31.6647C243.353 32.0885 243.595 32.6631 243.6 33.264V141.836C243.6 142.44 243.36 143.02 242.934 143.448C242.507 143.876 241.928 144.118 241.324 144.12ZM164.084 31.08C163.505 31.0811 162.95 31.3115 162.541 31.7208C162.131 32.1302 161.901 32.6851 161.9 33.264V141.836C161.901 142.415 162.131 142.97 162.541 143.379C162.95 143.789 163.505 144.019 164.084 144.02H241.324C241.903 144.019 242.458 143.789 242.867 143.379C243.276 142.97 243.507 142.415 243.508 141.836V33.264C243.507 32.6851 243.276 32.1302 242.867 31.7208C242.458 31.3115 241.903 31.0811 241.324 31.08H164.084Z" fill="#E0E0E0"/>
<path d="M228.488 115.312H218.296V161.96H228.488V115.312Z" fill="#E0E0E0"/>
<path d="M226.552 161.96H228.488V156.452H224.524L226.552 161.96Z" fill="#F0F0F0"/>
<path d="M190.4 115.312H180.208V161.96H190.4V115.312Z" fill="#E0E0E0"/>
<path d="M228.488 115.312H188.708V158.58H228.488V115.312Z" fill="#F0F0F0"/>
<path d="M209.248 137.392V151.696H226.988V137.392H209.248Z" fill="#E0E0E0"/>
<path d="M190.212 137.392V151.696H207.952V137.392H190.212Z" fill="#E0E0E0"/>
<path d="M200.836 138.936H197.324C196.57 138.936 195.824 138.782 195.131 138.483C194.439 138.185 193.814 137.748 193.296 137.2H204.864C204.346 137.748 203.722 138.185 203.029 138.483C202.336 138.782 201.59 138.936 200.836 138.936Z" fill="#F0F0F0"/>
<path d="M220.052 138.936H216.544C215.789 138.936 215.042 138.782 214.349 138.483C213.656 138.185 213.031 137.748 212.512 137.2H224.084C223.565 137.748 222.94 138.184 222.246 138.483C221.553 138.781 220.807 138.935 220.052 138.936Z" fill="#F0F0F0"/>
<path d="M209.248 118.568V132.872H226.988V118.568H209.248Z" fill="#E0E0E0"/>
<path d="M190.208 118.572V132.876H207.948V118.572H190.208Z" fill="#E0E0E0"/>
<path d="M200.836 120.112H197.324C196.57 120.112 195.824 119.958 195.132 119.66C194.44 119.362 193.815 118.927 193.296 118.38H204.864C204.345 118.927 203.721 119.362 203.028 119.66C202.336 119.958 201.59 120.112 200.836 120.112Z" fill="#F0F0F0"/>
<path d="M220.052 120.112H216.544C215.79 120.112 215.043 119.958 214.35 119.66C213.657 119.363 213.031 118.927 212.512 118.38H224.084C223.564 118.927 222.939 119.362 222.246 119.66C221.553 119.957 220.806 120.111 220.052 120.112Z" fill="#F0F0F0"/>
<path d="M190.644 161.96H188.708V156.452H192.676L190.644 161.96Z" fill="#F0F0F0"/>
<path d="M198.548 108.004C198.548 109.788 199.788 111.028 198.004 111.028C196.22 111.028 192.092 109.788 192.092 108.004C192.092 107.148 192.432 106.327 193.037 105.721C193.643 105.116 194.464 104.776 195.32 104.776C196.176 104.776 196.997 105.116 197.603 105.721C198.208 106.327 198.548 107.148 198.548 108.004Z" fill="#E0E0E0"/>
<path d="M204.072 109.544C204.072 111.324 205.312 112.568 203.528 112.568C201.744 112.568 197.6 111.324 197.6 109.544C197.6 108.688 197.94 107.867 198.545 107.261C199.151 106.656 199.972 106.316 200.828 106.316C201.684 106.316 202.505 106.656 203.111 107.261C203.716 107.867 204.056 108.688 204.056 109.544H204.072Z" fill="#E0E0E0"/>
<path d="M209.364 108.6C209.364 110.38 210.604 111.624 208.82 111.624C207.036 111.624 202.908 110.38 202.908 108.6C202.908 107.744 203.248 106.923 203.853 106.317C204.459 105.712 205.28 105.372 206.136 105.372C206.992 105.372 207.813 105.712 208.419 106.317C209.024 106.923 209.364 107.744 209.364 108.6Z" fill="#E0E0E0"/>
<path d="M190.116 109C190.116 109 190.38 115.296 200.496 115.296C210.612 115.296 210.872 109 210.872 109H190.116Z" fill="#E6E6E6"/>
<path d="M228.912 38.5959H177.62V95.3559H228.912V38.5959Z" fill="#E0E0E0"/>
<path d="M234.4 36.844H174.3C174.233 36.8435 174.167 36.8562 174.104 36.8815C174.042 36.9068 173.986 36.9442 173.938 36.9914C173.891 37.0386 173.853 37.0948 173.827 37.1567C173.801 37.2186 173.788 37.285 173.788 37.352C173.788 37.4878 173.842 37.618 173.938 37.714C174.034 37.8101 174.164 37.864 174.3 37.864H234.4C234.467 37.864 234.534 37.8507 234.595 37.825C234.657 37.7992 234.713 37.7614 234.761 37.7138C234.808 37.6662 234.845 37.6097 234.871 37.5476C234.896 37.4855 234.909 37.4191 234.908 37.352C234.908 37.2173 234.855 37.0881 234.759 36.9928C234.664 36.8975 234.535 36.844 234.4 36.844Z" fill="#E0E0E0"/>
<path d="M231.088 38.5959H178.636V95.3559H231.088V38.5959Z" fill="#E6E6E6"/>
<path d="M228.912 95.356H177.62V99.4H228.912V95.356Z" fill="#E0E0E0"/>
<path d="M234.712 95.356H182.26V99.4H234.712V95.356Z" fill="#E6E6E6"/>
<path d="M228.04 92.304V41.64H181.684V92.304H228.04Z" fill="#F5F5F5"/>
<path d="M192.208 92.308L210.092 41.644H218.532L200.648 92.308H192.208Z" fill="#FAFAFA"/>
<path d="M202.46 92.308L220.344 41.644H223.636L205.752 92.308H202.46Z" fill="#FAFAFA"/>
<path d="M228.04 92.308V41.644H227.652V92.308H228.04Z" fill="#E0E0E0"/>
<path d="M181.72 35.932H176.476V84.82H181.72V35.932Z" fill="#EBEBEB"/>
<path d="M183.76 35.932H179.676V84.82H183.76V35.932Z" fill="#E0E0E0"/>
<path d="M186.964 35.932H181.72V84.82H186.964V35.932Z" fill="#EBEBEB"/>
<path d="M189.004 35.932H184.92V84.82H189.004V35.932Z" fill="#E0E0E0"/>
<path d="M192.208 35.932H186.964V84.82H192.208V35.932Z" fill="#EBEBEB"/>
<path d="M226.088 35.932H223.068V84.82H226.088V35.932Z" fill="#EBEBEB"/>
<path d="M227.268 35.932H224.912V84.82H227.268V35.932Z" fill="#E0E0E0"/>
<path d="M229.108 35.932H226.088V84.82H229.108V35.932Z" fill="#EBEBEB"/>
<path d="M230.288 35.932H227.932V84.82H230.288V35.932Z" fill="#E0E0E0"/>
<path d="M232.132 35.932H229.112V84.82H232.132V35.932Z" fill="#EBEBEB"/>
<path d="M104.148 51.256H98.684V66.164H104.148V51.256Z" fill="#E6E6E6"/>
<path d="M91.2161 69.576L89.4801 74.312H91.2161L101.84 69.576H91.2161Z" fill="#F0F0F0"/>
<path d="M89.4801 69.576V74.312L100.108 69.576H89.4801Z" fill="#E0E0E0"/>
<path d="M132.88 69.576L131.148 74.312H132.88L143.508 69.576H132.88Z" fill="#F0F0F0"/>
<path d="M131.148 69.576V74.312L141.772 69.576H131.148Z" fill="#E0E0E0"/>
<path d="M81.6841 69.8H93.2401V66.1961H81.6841V69.8Z" fill="#E0E0E0"/>
<path d="M150.688 66.196H93.236V69.8H150.688V66.196Z" fill="#F0F0F0"/>
<path d="M113.248 66.1639H99.9479L98.3039 48.0959H111.604L113.248 66.1639Z" fill="#E0E0E0"/>
<path d="M113.936 66.1639H100.64L98.992 48.0959H112.292L113.936 66.1639Z" fill="#F0F0F0"/>
<path d="M102.456 64.1639L101.176 50.0959H110.476L111.756 64.1639H102.456Z" fill="#FAFAFA"/>
<path d="M119.304 60.296C119.304 60.296 119.548 66.164 128.976 66.164C138.404 66.164 138.648 60.296 138.648 60.296H119.304Z" fill="#E6E6E6"/>
<path d="M109.504 160.664H94.932C94.602 160.671 94.2787 160.571 94.0096 160.38C93.7405 160.189 93.5399 159.917 93.4373 159.603C93.3347 159.289 93.3355 158.951 93.4397 158.638C93.5439 158.325 93.7459 158.054 94.016 157.864L94.252 158.184C94.06 158.328 93.918 158.528 93.846 158.757C93.7741 158.985 93.7758 159.231 93.8509 159.459C93.9261 159.686 94.0709 159.885 94.2649 160.026C94.4588 160.166 94.6922 160.243 94.932 160.244H109.504C110.397 160.243 111.253 159.888 111.884 159.256C112.516 158.625 112.871 157.769 112.872 156.876V113.752C112.873 112.78 113.259 111.848 113.946 111.161C114.633 110.473 115.564 110.086 116.536 110.084H120.896V110.484H116.536C115.67 110.486 114.841 110.831 114.229 111.444C113.617 112.056 113.273 112.886 113.272 113.752V156.896C113.27 157.895 112.872 158.852 112.166 159.558C111.46 160.264 110.503 160.662 109.504 160.664Z" fill="#E0E0E0"/>
<path d="M158.18 110.908H131.936V161.96H158.18V110.908Z" fill="#E0E0E0"/>
<path d="M159.168 110.908H157.004V161.96H159.168V110.908Z" fill="#EBEBEB"/>
<path d="M107.652 114.736H159.836V110.908H107.652V114.736Z" fill="#EBEBEB"/>
<path d="M107.34 110.908H81.0961V161.96H107.34V110.908Z" fill="#E0E0E0"/>
<path d="M108.324 110.908H106.16V161.96H108.324V110.908Z" fill="#EBEBEB"/>
<path d="M99.2119 95.668H123.668L127.212 110.108H102.756L99.2119 95.668Z" fill="#E0E0E0"/>
<path d="M102.756 110.108L102.856 110.908H127.312L127.216 110.108H102.756Z" fill="#E0E0E0"/>
<path d="M99.968 95.668H124.424L127.968 110.108H103.512L99.968 95.668Z" fill="#F0F0F0"/>
<path d="M104.028 109.448L100.808 96.328H123.904L127.124 109.448H104.028Z" fill="#FAFAFA"/>
<path d="M109.884 110.108L109.98 110.908H136.912L136.812 110.108H109.884Z" fill="#F0F0F0"/>
<path d="M90.8279 107.268C90.8279 107.268 87.2279 101.064 92.2239 96.124C92.2239 96.124 93.5239 96.976 93.5039 98.124C93.4839 99.272 92.1119 99.556 92.4039 100.524C92.6959 101.492 94.0039 102.412 93.1479 103.2C92.2919 103.988 93.2839 104.688 93.2279 105.656C93.1719 106.624 90.8279 107.268 90.8279 107.268Z" fill="#F0F0F0"/>
<path d="M91.0999 107.836C91.0999 107.836 92.5599 100.812 86.2639 97.7C86.2639 97.7 85.2959 98.92 85.6759 99.996C86.0559 101.072 87.4519 100.912 87.4719 101.912C87.4919 102.912 86.5519 104.204 87.6119 104.684C88.6719 105.164 87.9479 106.14 88.3079 107.036C88.6679 107.932 91.0999 107.836 91.0999 107.836Z" fill="#F0F0F0"/>
<path d="M85.6 106.28C85.6 106.28 85.72 110.908 90.308 110.908C94.896 110.908 95.004 106.28 95.004 106.28H85.6Z" fill="#E0E0E0"/>
<path d="M150.296 161.96H149.384L146.772 149.096L146.316 146.844L143.468 132.844H132.552L126.636 161.96H125.724L131.752 132.288C131.772 132.187 131.826 132.096 131.906 132.031C131.985 131.966 132.085 131.931 132.188 131.932H143.832C143.935 131.931 144.035 131.966 144.114 132.031C144.194 132.096 144.248 132.187 144.268 132.288L146.768 144.6L147.228 146.852L150.296 161.96Z" fill="#EBEBEB"/>
<path d="M167.82 161.96H166.904L160.988 132.828H150.076L147.228 146.852L146.772 149.096L144.16 161.96H143.248L146.316 146.844L146.768 144.6L149.272 132.288C149.292 132.187 149.346 132.096 149.426 132.031C149.505 131.966 149.605 131.931 149.708 131.932H161.352C161.455 131.932 161.555 131.967 161.635 132.032C161.716 132.097 161.771 132.187 161.792 132.288L167.82 161.96Z" fill="#EBEBEB"/>
<path d="M140.916 132.38H160.972C162.812 132.378 164.578 131.656 165.892 130.368C167.206 129.079 167.962 127.328 168 125.488L168.748 95.0081C168.759 94.3286 168.634 93.6538 168.382 93.0229C168.129 92.392 167.754 91.8176 167.277 91.333C166.801 90.8484 166.233 90.4634 165.607 90.2002C164.98 89.9371 164.308 89.801 163.628 89.8H151.056C149.798 89.8007 148.583 90.2641 147.644 91.102C146.705 91.9399 146.107 93.0938 145.964 94.344L140.916 132.38Z" fill="#E6E6E6"/>
<path d="M151.852 132.38H130.48C130.215 132.38 129.96 132.275 129.773 132.087C129.585 131.9 129.48 131.645 129.48 131.38V131.284C129.48 130.555 129.769 129.856 130.285 129.341C130.8 128.826 131.499 128.536 132.228 128.536H151.852V132.38Z" fill="#E6E6E6"/>
<path d="M150.375 174.889C193.208 174.889 227.931 172.862 227.931 170.361C227.931 167.861 193.208 165.833 150.375 165.833C107.542 165.833 72.819 167.861 72.819 170.361C72.819 172.862 107.542 174.889 150.375 174.889Z" fill="#F5F5F5"/>
<path d="M160.951 72.1936L161.211 72.4136C161.307 72.4976 161.415 72.5776 161.519 72.6576C161.727 72.8216 161.919 72.9856 162.159 73.1416C162.591 73.4576 163.051 73.7456 163.511 74.0336C164.439 74.6055 165.412 75.1018 166.419 75.5176C167.423 75.9451 168.456 76.2981 169.511 76.5736C169.775 76.6456 170.047 76.6936 170.311 76.7536L170.711 76.8416C170.795 76.8416 170.711 76.8416 170.711 76.8616C170.657 76.8744 170.605 76.8974 170.559 76.9296C170.523 76.9656 170.523 76.9656 170.539 76.9576C170.618 76.8403 170.68 76.7124 170.723 76.5776C170.865 76.1161 170.952 75.6395 170.983 75.1576C171.031 74.6336 171.047 74.0816 171.043 73.5256C171.043 72.4096 170.955 71.2696 170.867 70.1256C170.779 68.9816 170.639 67.8336 170.491 66.6816C170.343 65.5296 170.179 64.3776 170.007 63.2416L171.511 62.8976C172.174 65.1806 172.708 67.4989 173.111 69.8416C173.321 71.0329 173.466 72.2347 173.547 73.4416C173.594 74.0644 173.609 74.6892 173.591 75.3136C173.586 76.0028 173.498 76.6889 173.331 77.3576C173.218 77.7852 173.034 78.1908 172.787 78.5576C172.614 78.8076 172.399 79.0256 172.151 79.2016C171.867 79.4049 171.54 79.5416 171.195 79.6016C170.899 79.6516 170.596 79.6516 170.299 79.6016L169.839 79.5256C169.531 79.4736 169.219 79.4336 168.915 79.3656C167.689 79.122 166.485 78.7768 165.315 78.3336C164.146 77.8851 163.016 77.3419 161.935 76.7096C161.395 76.3856 160.867 76.0456 160.355 75.6736C160.099 75.4896 159.847 75.2736 159.595 75.0976C159.471 74.9936 159.347 74.8936 159.223 74.7816C159.099 74.6696 158.983 74.5776 158.823 74.4256L160.951 72.1936Z" fill="#E4897B"/>
<path d="M156.603 70.3735C161.003 69.7775 164.539 73.3255 164.539 73.3255L160.515 79.5335C160.515 79.5335 156.203 76.7735 155.443 74.8935C154.659 72.9375 154.351 70.6655 156.603 70.3735Z" fill="#FA1239"/>
<path opacity="0.6" d="M156.603 70.3735C161.003 69.7775 164.539 73.3255 164.539 73.3255L160.515 79.5335C160.515 79.5335 156.203 76.7735 155.443 74.8935C154.659 72.9375 154.351 70.6655 156.603 70.3735Z" fill="#FAFAFA"/>
<path d="M170.043 63.7815L168.583 60.8535L172.411 60.8215C172.411 60.8215 172.487 62.8655 171.519 64.0215L170.043 63.7815Z" fill="#E4897B"/>
<path d="M169.263 57.7056L172.111 58.2136L172.411 60.8216L168.583 60.8536L169.263 57.7056Z" fill="#E4897B"/>
<path d="M141.043 167.014L144.627 167.358L147.107 158.942L143.523 158.594L141.043 167.014Z" fill="#E4897B"/>
<path d="M118.255 154.565L120.911 157.061L126.647 150.757L123.991 148.261L118.255 154.565Z" fill="#E4897B"/>
<path d="M122.139 155.865L120.139 152.265C120.105 152.204 120.05 152.156 119.984 152.132C119.918 152.108 119.845 152.108 119.779 152.133L116.703 153.301C116.627 153.334 116.559 153.382 116.502 153.443C116.446 153.504 116.403 153.576 116.376 153.654C116.35 153.733 116.34 153.816 116.347 153.898C116.354 153.981 116.379 154.061 116.419 154.133C117.135 155.373 117.547 155.937 118.419 157.517C118.959 158.493 120.019 160.717 120.759 162.069C121.499 163.421 122.871 162.745 122.683 162.121C121.827 159.321 121.991 157.749 122.231 156.521C122.279 156.299 122.247 156.066 122.139 155.865Z" fill="#263238"/>
<path d="M145.047 166.266H140.703C140.626 166.266 140.55 166.293 140.489 166.34C140.427 166.388 140.383 166.454 140.363 166.53L139.415 169.966C139.393 170.047 139.39 170.132 139.406 170.215C139.423 170.298 139.458 170.376 139.51 170.442C139.561 170.509 139.628 170.563 139.704 170.6C139.779 170.636 139.863 170.655 139.947 170.654C141.479 170.654 142.203 170.654 144.115 170.654H149.951C151.551 170.654 151.871 169.054 151.215 168.902C148.271 168.254 146.571 167.354 145.663 166.502C145.495 166.348 145.275 166.264 145.047 166.266Z" fill="#263238"/>
<path d="M147.107 158.942L145.827 163.282H142.139L143.519 158.598L147.107 158.942Z" fill="#CE6F64"/>
<path d="M123.987 148.266L126.647 150.758L123.687 154.006L121.031 151.514L123.987 148.266Z" fill="#CE6F64"/>
<path d="M160.939 67.8896C160.911 64.9816 158.279 63.9656 158.279 63.9656C158.279 63.9656 161.571 57.7336 159.879 53.5976C158.187 49.4616 152.611 48.7336 150.843 50.6656C147.735 50.5336 146.747 54.9976 146.747 54.9976C146.747 54.9976 144.147 55.4336 143.447 57.3256C142.747 59.2176 144.879 61.3496 144.879 61.3496C144.879 61.3496 141.911 61.7496 140.819 64.0336C139.727 66.3176 140.399 69.3496 143.679 71.9656C148.447 75.7656 157.211 70.9976 157.211 70.9976C157.211 70.9976 160.971 71.2336 160.939 67.8896Z" fill="#263238"/>
<path d="M160.375 70.7816C160.375 70.7816 161.975 71.4816 156.631 92.5896L141.831 91.3056C142.599 85.3056 142.931 81.5776 141.119 68.9536C143.231 68.7039 145.358 68.6089 147.483 68.6696C149.737 68.7035 151.985 68.8974 154.211 69.2496C156.29 69.657 158.348 70.1683 160.375 70.7816Z" fill="#FA1239"/>
<path opacity="0.6" d="M160.375 70.7816C160.375 70.7816 161.975 71.4816 156.631 92.5896L141.831 91.3056C142.599 85.3056 142.931 81.5776 141.119 68.9536C143.231 68.7039 145.358 68.6089 147.483 68.6696C149.737 68.7035 151.985 68.8974 154.211 69.2496C156.29 69.657 158.348 70.1683 160.375 70.7816Z" fill="#FAFAFA"/>
<path d="M156.539 69.7495C155.771 69.5655 154.939 69.3895 154.179 69.2495C151.953 68.896 149.705 68.7008 147.451 68.6655C146.679 68.6375 145.907 68.6375 145.183 68.6655L145.679 69.6095C145.767 69.7775 147.879 73.7175 151.891 75.9535L152.995 76.5695L154.023 75.8375C156.615 73.9855 156.999 71.5775 156.539 69.7495Z" fill="#FAFAFA"/>
<path d="M148.775 61.1495C149.011 63.3535 149.091 67.3575 147.455 68.6695C147.455 68.6695 149.327 72.2255 152.871 74.1975C156.007 71.9655 154.183 69.2495 154.183 69.2495C151.819 68.4495 152.035 66.6815 152.583 65.0335L148.775 61.1495Z" fill="#E4897B"/>
<path d="M150.331 62.7335L152.595 65.0335C152.457 65.4157 152.353 65.8092 152.283 66.2095C151.375 65.9975 150.055 65.0495 150.039 64.0735C150.057 63.6132 150.156 63.1597 150.331 62.7335Z" fill="#CE6F64"/>
<path d="M148.679 56.1496C148.243 59.7496 147.983 61.2736 149.451 63.4376C151.659 66.6856 156.187 66.4296 157.687 63.0376C159.039 59.9736 159.523 54.5896 156.287 52.5296C155.578 52.0729 154.763 51.805 153.921 51.7511C153.079 51.6972 152.238 51.8592 151.476 52.2217C150.714 52.5843 150.057 53.1353 149.568 53.8227C149.078 54.5101 148.773 55.311 148.679 56.1496Z" fill="#E4897B"/>
<path d="M151.471 51.7135C154.251 52.4335 151.503 60.8895 147.071 58.4375C147.071 58.4375 147.271 54.8655 148.503 53.3495C149.248 52.4463 150.31 51.8612 151.471 51.7135Z" fill="#263238"/>
<path d="M151.175 52.1815C152.375 54.1335 161.275 57.8335 158.283 53.6335C155.291 49.4335 151.175 52.1815 151.175 52.1815Z" fill="#263238"/>
<path d="M147.535 59.2656C147.485 59.9669 147.714 60.6596 148.171 61.1936C148.787 61.8936 149.599 61.4696 149.855 60.6216C150.083 59.8616 150.039 58.5815 149.219 58.1895C149.038 58.1097 148.84 58.0759 148.643 58.091C148.446 58.1062 148.256 58.1698 148.089 58.2763C147.922 58.3828 147.785 58.5288 147.688 58.7014C147.591 58.874 147.539 59.0678 147.535 59.2656Z" fill="#E4897B"/>
<path d="M156.615 92.5895C156.615 92.5895 161.627 114.766 158.283 130.398C156.043 140.87 147.959 162.022 147.959 162.022L141.639 161.862C141.639 161.862 147.755 139.662 149.023 130.934C151.187 115.998 145.767 91.6495 145.767 91.6495L156.615 92.5895Z" fill="#263238"/>
<path d="M150.835 97.0656L147.675 102.05C148.628 107.96 149.231 113.921 149.483 119.902C153.927 111.946 151.823 101.278 150.835 97.0656Z" fill="#263238"/>
<path d="M148.479 162.35L140.671 162.15L141.123 159.754L149.647 160.158L148.479 162.35Z" fill="#FA1239"/>
<path opacity="0.6" d="M148.479 162.35L140.671 162.15L141.123 159.754L149.647 160.158L148.479 162.35Z" fill="#FAFAFA"/>
<path d="M153.375 92.3496C153.375 92.3496 150.435 115.87 144.059 128.71C138.911 139.066 125.175 153.866 125.175 153.866L121.663 150.246C121.663 150.246 130.943 134.202 134.771 127.31C144.155 110.418 136.483 97.5296 141.803 91.3096L153.375 92.3496Z" fill="#263238"/>
<path d="M125.527 154.33L120.991 149.91L122.499 147.862L127.439 152.97L125.527 154.33Z" fill="#FA1239"/>
<path opacity="0.6" d="M125.527 154.33L120.991 149.91L122.499 147.862L127.439 152.97L125.527 154.33Z" fill="#FAFAFA"/>
<path d="M141.651 90.4175L140.871 91.6855C140.807 91.7855 140.923 91.9015 141.091 91.9135L156.631 93.2575C156.767 93.2575 156.883 93.2135 156.899 93.1295L157.147 91.8175C157.147 91.7255 157.055 91.6375 156.907 91.6255L141.903 90.3255C141.857 90.3177 141.809 90.3222 141.765 90.3383C141.721 90.3544 141.682 90.3817 141.651 90.4175Z" fill="#FA1239"/>
<path opacity="0.3" d="M141.651 90.4175L140.871 91.6855C140.807 91.7855 140.923 91.9015 141.091 91.9135L156.631 93.2575C156.767 93.2575 156.883 93.2135 156.899 93.1295L157.147 91.8175C157.147 91.7255 157.055 91.6375 156.907 91.6255L141.903 90.3255C141.857 90.3177 141.809 90.3222 141.765 90.3383C141.721 90.3544 141.682 90.3817 141.651 90.4175Z" fill="black"/>
<path d="M143.523 92.2656L143.123 92.2296C143.043 92.2296 142.987 92.1776 142.995 92.1256L143.335 90.4216C143.335 90.3696 143.419 90.3336 143.499 90.3416L143.899 90.3776C143.979 90.3776 144.035 90.4296 144.027 90.4816L143.691 92.1856C143.675 92.2416 143.603 92.2656 143.523 92.2656Z" fill="#263238"/>
<path d="M155.491 93.3055L155.091 93.2695C155.011 93.2695 154.955 93.2175 154.963 93.1655L155.303 91.4575C155.303 91.4095 155.387 91.3735 155.467 91.3815L155.867 91.4175C155.947 91.4175 156.003 91.4695 155.995 91.5175L155.659 93.2255C155.643 93.2775 155.575 93.3095 155.491 93.3055Z" fill="#263238"/>
<path d="M149.507 92.7855L149.107 92.7535C149.027 92.7535 148.971 92.6975 148.979 92.6495L149.319 90.9415C149.319 90.8935 149.403 90.8575 149.483 90.8655L149.883 90.8975C149.963 90.8975 150.019 90.9535 150.011 91.0015L149.675 92.7095C149.659 92.7575 149.575 92.7935 149.507 92.7855Z" fill="#263238"/>
<path d="M153.907 58.1376C153.855 58.4256 153.967 58.6896 154.155 58.7256C154.343 58.7616 154.555 58.5536 154.595 58.2616C154.635 57.9696 154.539 57.7056 154.347 57.6736C154.155 57.6416 153.975 57.8656 153.907 58.1376Z" fill="#263238"/>
<path d="M157.175 58.7376C157.123 59.0256 157.235 59.2896 157.423 59.3256C157.611 59.3616 157.823 59.1536 157.863 58.8616C157.903 58.5696 157.807 58.3056 157.615 58.2736C157.423 58.2416 157.247 58.4456 157.175 58.7376Z" fill="#263238"/>
<path d="M157.547 58.2655L158.279 58.1935C158.279 58.1935 157.823 58.6655 157.547 58.2655Z" fill="#263238"/>
<path d="M156.231 59.0656C156.371 59.7754 156.607 60.463 156.931 61.1096C156.763 61.1878 156.58 61.2284 156.395 61.2284C156.21 61.2284 156.027 61.1878 155.859 61.1096L156.231 59.0656Z" fill="#DE5753"/>
<path d="M154.643 62.0696C154.253 62.0091 153.883 61.8559 153.564 61.6227C153.245 61.3895 152.987 61.0832 152.811 60.7296C152.805 60.7121 152.805 60.6926 152.813 60.6755C152.82 60.6583 152.834 60.6447 152.851 60.6376C152.86 60.6336 152.869 60.6315 152.878 60.6311C152.887 60.6308 152.896 60.6324 152.905 60.6358C152.914 60.6392 152.921 60.6442 152.928 60.6507C152.935 60.6572 152.94 60.665 152.943 60.6736C153.112 61.0032 153.356 61.2884 153.655 61.506C153.955 61.7236 154.302 61.8673 154.667 61.9256C154.686 61.9256 154.705 61.9332 154.718 61.9467C154.732 61.9602 154.739 61.9785 154.739 61.9976C154.739 62.0167 154.732 62.035 154.718 62.0485C154.705 62.062 154.686 62.0696 154.667 62.0696H154.643Z" fill="#263238"/>
<path d="M153.127 55.8655C153.097 55.8661 153.067 55.8569 153.042 55.8394C153.017 55.8218 152.998 55.7967 152.988 55.7677C152.978 55.7388 152.978 55.7074 152.987 55.6783C152.996 55.6491 153.015 55.6237 153.039 55.6055C153.25 55.4358 153.498 55.3192 153.764 55.2656C154.029 55.212 154.303 55.223 154.563 55.2975C154.581 55.3038 154.598 55.3136 154.612 55.3262C154.626 55.3389 154.637 55.3542 154.645 55.3713C154.654 55.3884 154.658 55.4069 154.659 55.4258C154.66 55.4448 154.658 55.4637 154.651 55.4815C154.645 55.4994 154.635 55.5159 154.623 55.53C154.61 55.5441 154.595 55.5556 154.577 55.5637C154.56 55.5719 154.542 55.5766 154.523 55.5776C154.504 55.5786 154.485 55.5759 154.467 55.5695C154.253 55.5105 154.027 55.5037 153.809 55.5497C153.591 55.5956 153.388 55.6929 153.215 55.8335C153.19 55.8527 153.159 55.8639 153.127 55.8655Z" fill="#263238"/>
<path d="M159.047 57.6335C159.026 57.6334 159.005 57.6288 158.986 57.6198C158.966 57.6108 158.949 57.5978 158.935 57.5815C158.799 57.4053 158.622 57.2639 158.421 57.1686C158.219 57.0734 157.998 57.0271 157.775 57.0335C157.737 57.037 157.699 57.0256 157.669 57.0017C157.64 56.9779 157.62 56.9434 157.615 56.9055C157.613 56.8868 157.615 56.8679 157.62 56.8498C157.625 56.8317 157.634 56.8149 157.646 56.8003C157.658 56.7857 157.673 56.7737 157.689 56.765C157.706 56.7563 157.724 56.751 157.743 56.7495C158.014 56.7356 158.284 56.7872 158.531 56.9C158.777 57.0129 158.993 57.1835 159.159 57.3975C159.185 57.4251 159.2 57.4616 159.2 57.4995C159.2 57.5375 159.185 57.574 159.159 57.6015C159.127 57.6259 159.087 57.6373 159.047 57.6335Z" fill="#263238"/>
<path d="M142.211 74.2656C141.61 75.4592 140.942 76.6183 140.211 77.7376C139.491 78.8416 138.731 79.9216 137.911 80.9616C137.083 82.0053 136.195 83.0003 135.251 83.9416C134.763 84.4016 134.287 84.8696 133.763 85.3016L133.363 85.6296L133.267 85.7096L133.139 85.8096C133.055 85.8784 132.967 85.9425 132.875 86.0016C132.512 86.2508 132.116 86.4499 131.699 86.5936C130.914 86.8496 130.085 86.9408 129.263 86.8616C128.527 86.788 127.802 86.6282 127.103 86.3856C125.809 85.9339 124.574 85.3254 123.427 84.5736C121.221 83.1423 119.188 81.459 117.371 79.5576L118.435 78.4416C119.391 79.2096 120.399 79.9736 121.431 80.6656C122.442 81.3737 123.495 82.0202 124.583 82.6016C125.62 83.1709 126.714 83.6282 127.847 83.9656C128.927 84.2656 130.011 84.3176 130.759 84.0056C131.182 83.8218 131.56 83.5489 131.867 83.2056C132.311 82.8056 132.723 82.3616 133.143 81.9296C133.963 81.0376 134.723 80.0816 135.471 79.1296C136.219 78.1776 136.895 77.1296 137.551 76.0896C137.883 75.5696 138.199 75.0416 138.511 74.5136C138.823 73.9856 139.123 73.4296 139.383 72.9336L142.211 74.2656Z" fill="#E4897B"/>
<path d="M119.447 78.9175L118.023 75.9735L115.655 78.9815C115.655 78.9815 117.223 80.2895 118.747 80.2415L119.447 78.9175Z" fill="#E4897B"/>
<path d="M116.467 75.1135L115.127 77.6775L115.655 78.9815L118.023 75.9735L116.467 75.1135Z" fill="#E4897B"/>
<path d="M141.087 68.9536C139.271 69.2736 136.723 74.4856 136.723 74.4856L141.711 78.9936C141.711 78.9936 144.943 74.6536 144.751 72.2856C144.587 70.2656 143.399 68.5456 141.087 68.9536Z" fill="#FA1239"/>
<path opacity="0.6" d="M141.087 68.9536C139.271 69.2736 136.723 74.4856 136.723 74.4856L141.711 78.9936C141.711 78.9936 144.943 74.6536 144.751 72.2856C144.587 70.2656 143.399 68.5456 141.087 68.9536Z" fill="#FAFAFA"/>
<path d="M122.839 157.797C122.792 157.798 122.744 157.79 122.699 157.773C122.263 157.629 121.979 156.825 121.847 156.357C121.843 156.344 121.844 156.329 121.848 156.316C121.852 156.302 121.86 156.29 121.871 156.281C121.884 156.274 121.897 156.271 121.911 156.271C121.925 156.271 121.939 156.274 121.951 156.281C122.083 156.349 123.243 156.973 123.279 157.429C123.285 157.479 123.276 157.53 123.254 157.575C123.232 157.621 123.198 157.659 123.155 157.685C123.065 157.757 122.954 157.796 122.839 157.797ZM122.039 156.485C122.239 157.129 122.499 157.553 122.747 157.637C122.804 157.654 122.864 157.656 122.921 157.643C122.979 157.63 123.032 157.602 123.075 157.561C123.097 157.549 123.115 157.53 123.126 157.507C123.138 157.484 123.142 157.459 123.139 157.433C123.115 157.153 122.435 156.709 122.035 156.485H122.039Z" fill="#FA1239"/>
<path d="M123.019 156.666C122.624 156.664 122.234 156.572 121.879 156.398C121.868 156.392 121.859 156.384 121.852 156.373C121.846 156.362 121.843 156.35 121.843 156.338C121.843 156.324 121.847 156.311 121.854 156.3C121.861 156.289 121.871 156.279 121.883 156.274C121.919 156.274 122.839 155.75 123.335 155.926C123.396 155.945 123.452 155.979 123.498 156.023C123.545 156.067 123.581 156.122 123.603 156.182C123.635 156.239 123.646 156.306 123.634 156.371C123.622 156.436 123.589 156.494 123.539 156.538C123.384 156.636 123.202 156.681 123.019 156.666ZM122.075 156.338C122.475 156.506 123.231 156.61 123.447 156.426C123.483 156.398 123.515 156.346 123.471 156.234C123.455 156.193 123.431 156.156 123.399 156.127C123.367 156.097 123.329 156.075 123.287 156.062C122.947 155.942 122.335 156.21 122.075 156.338Z" fill="#FA1239"/>
<path d="M146.975 166.97C146.571 166.96 146.169 166.909 145.775 166.818C145.76 166.814 145.747 166.806 145.737 166.795C145.727 166.783 145.721 166.769 145.719 166.754C145.717 166.739 145.72 166.724 145.727 166.711C145.734 166.698 145.746 166.688 145.759 166.682C145.939 166.598 147.511 165.882 147.911 166.138C147.947 166.162 147.975 166.196 147.994 166.235C148.012 166.275 148.019 166.318 148.015 166.362C148.011 166.44 147.989 166.516 147.951 166.585C147.914 166.654 147.862 166.715 147.799 166.762C147.552 166.912 147.265 166.985 146.975 166.97ZM146.039 166.722C146.507 166.81 147.371 166.922 147.727 166.654C147.774 166.618 147.813 166.573 147.841 166.521C147.868 166.47 147.884 166.412 147.887 166.354C147.89 166.335 147.887 166.317 147.88 166.3C147.873 166.283 147.862 166.269 147.847 166.258C147.623 166.106 146.691 166.434 146.039 166.722Z" fill="#FA1239"/>
<path d="M145.807 166.818C145.792 166.824 145.775 166.824 145.759 166.818C145.749 166.809 145.742 166.797 145.738 166.785C145.733 166.772 145.733 166.759 145.735 166.746C145.735 166.682 146.111 165.126 146.963 165.226C147.179 165.25 147.235 165.358 147.247 165.442C147.303 165.842 146.307 166.642 145.835 166.83L145.807 166.818ZM146.887 165.35C146.339 165.35 146.023 166.254 145.915 166.618C146.431 166.346 147.139 165.698 147.115 165.446C147.115 165.426 147.115 165.37 146.959 165.354L146.887 165.35Z" fill="#FA1239"/>
<path d="M154.263 57.6735L154.995 57.5975C154.995 57.5975 154.539 58.0775 154.263 57.6735Z" fill="#263238"/>
<path opacity="0.6" d="M124.171 34.8776L112.447 110.666L178.415 120.858L190.139 45.0656L124.171 34.8776ZM151.275 77.9856C148.247 77.5169 145.426 76.1607 143.169 74.0886C140.913 72.0164 139.321 69.3213 138.596 66.3444C137.871 63.3674 138.045 60.2423 139.097 57.3644C140.148 54.4865 142.03 51.9852 144.503 50.1769C146.977 48.3686 149.931 47.3345 152.992 47.2055C156.053 47.0765 159.084 47.8584 161.701 49.4523C164.318 51.0462 166.403 53.3804 167.693 56.1596C168.983 58.9388 169.419 62.0382 168.947 65.0656C168.315 69.1213 166.099 72.7601 162.785 75.1827C159.471 77.6053 155.332 78.6134 151.275 77.9856Z" fill="#FA1239"/>
<g style="mix-blend-mode:multiply" opacity="0.3">
<path d="M176.423 117.982H176.323L110.255 107.746V107.646L122.011 31.7695H122.107L188.175 42.0055V42.1055L176.423 117.982ZM110.483 107.582L176.255 117.754L187.947 42.1535L122.175 31.9975L110.483 107.582Z" fill="#FA1239"/>
</g>
<path d="M153.651 78.7695C152.825 78.7686 152 78.7044 151.183 78.5775C147.08 77.9373 143.384 75.7326 140.87 72.4261C138.357 69.1196 137.222 64.9682 137.704 60.843C138.185 56.7178 140.246 52.9395 143.453 50.3007C146.66 47.6619 150.765 46.3678 154.906 46.6899C159.046 47.012 162.901 48.9253 165.662 52.0284C168.422 55.1314 169.874 59.183 169.711 63.3331C169.549 67.4831 167.786 71.409 164.791 74.2871C161.797 77.1651 157.805 78.7716 153.651 78.7695ZM151.367 77.3935C154.276 77.8429 157.253 77.4197 159.922 76.1774C162.59 74.9351 164.831 72.9294 166.359 70.414C167.888 67.8985 168.636 64.9863 168.51 62.0455C168.384 59.1047 167.388 56.2674 165.65 53.8922C163.911 51.5171 161.507 49.7108 158.742 48.7018C155.977 47.6928 152.975 47.5264 150.115 48.2235C147.255 48.9206 144.666 50.4501 142.676 52.6184C140.685 54.7868 139.382 57.4967 138.931 60.4055C138.332 64.3067 139.305 68.2862 141.637 71.4709C143.968 74.6557 147.468 76.7856 151.367 77.3935Z" fill="#FAFAFA"/>
<path d="M138.533 82.6745L124.001 80.4275L123.496 83.6927L138.028 85.9397L138.533 82.6745Z" fill="#FA1239"/>
<path opacity="0.6" d="M138.533 82.6745L124.001 80.4275L123.496 83.6927L138.028 85.9397L138.533 82.6745Z" fill="#FAFAFA"/>
<path d="M150.278 84.4911L140.447 82.9709L139.942 86.2361L149.773 87.7563L150.278 84.4911Z" fill="#FA1239"/>
<path opacity="0.6" d="M150.278 84.4911L140.447 82.9709L139.942 86.2361L149.773 87.7563L150.278 84.4911Z" fill="#FAFAFA"/>
<path d="M175.523 95.1693L122.976 87.0439L122.471 90.3091L175.018 98.4345L175.523 95.1693Z" fill="#FAFAFA"/>
<path d="M148.461 97.913L122.285 93.947L121.789 97.218L147.965 101.184L148.461 97.913Z" fill="#FAFAFA"/>
<path d="M169.985 101.422L152.505 98.7186L152 101.984L169.48 104.687L169.985 101.422Z" fill="#FAFAFA"/>
<path d="M162.839 107.428L120.831 100.932L120.326 104.197L162.334 110.693L162.839 107.428Z" fill="#FAFAFA"/>
<path d="M190.843 120.858H190.443C190.445 119.865 190.322 118.876 190.079 117.914L190.479 117.818C190.727 118.812 190.849 119.833 190.843 120.858ZM189.275 115.69C188.395 113.848 187.065 112.257 185.407 111.066L185.639 110.742C187.351 111.971 188.726 113.61 189.639 115.51L189.275 115.69Z" fill="#FA1239"/>
<path opacity="0.6" d="M190.843 120.858H190.443C190.445 119.865 190.322 118.876 190.079 117.914L190.479 117.818C190.727 118.812 190.849 119.833 190.843 120.858ZM189.275 115.69C188.395 113.848 187.065 112.257 185.407 111.066L185.639 110.742C187.351 111.971 188.726 113.61 189.639 115.51L189.275 115.69Z" fill="#FAFAFA"/>
<path d="M178.415 109.83C176.234 109.83 174.102 110.476 172.288 111.688C170.475 112.9 169.061 114.622 168.227 116.637C167.392 118.652 167.174 120.87 167.599 123.009C168.025 125.148 169.075 127.113 170.617 128.656C172.16 130.198 174.125 131.248 176.264 131.674C178.403 132.099 180.62 131.881 182.636 131.046C184.651 130.211 186.373 128.798 187.585 126.984C188.796 125.171 189.443 123.039 189.443 120.858C189.443 117.933 188.281 115.128 186.213 113.06C184.145 110.991 181.34 109.83 178.415 109.83ZM178.415 130.458C176.517 130.458 174.661 129.895 173.082 128.84C171.503 127.785 170.273 126.286 169.546 124.531C168.819 122.777 168.629 120.847 169 118.985C169.37 117.122 170.284 115.412 171.627 114.069C172.97 112.727 174.68 111.812 176.542 111.442C178.405 111.072 180.335 111.262 182.089 111.988C183.843 112.715 185.343 113.945 186.397 115.524C187.452 117.103 188.015 118.959 188.015 120.858C188.015 123.404 187.004 125.845 185.203 127.646C183.403 129.446 180.961 130.458 178.415 130.458Z" fill="#FA1239"/>
<path opacity="0.6" d="M178.415 109.83C176.234 109.83 174.102 110.476 172.288 111.688C170.475 112.9 169.061 114.622 168.227 116.637C167.392 118.652 167.174 120.87 167.599 123.009C168.025 125.148 169.075 127.113 170.617 128.656C172.16 130.198 174.125 131.248 176.264 131.674C178.403 132.099 180.62 131.881 182.636 131.046C184.651 130.211 186.373 128.798 187.585 126.984C188.796 125.171 189.443 123.039 189.443 120.858C189.443 117.933 188.281 115.128 186.213 113.06C184.145 110.991 181.34 109.83 178.415 109.83ZM178.415 130.458C176.517 130.458 174.661 129.895 173.082 128.84C171.503 127.785 170.273 126.286 169.546 124.531C168.819 122.777 168.629 120.847 169 118.985C169.37 117.122 170.284 115.412 171.627 114.069C172.97 112.727 174.68 111.812 176.542 111.442C178.405 111.072 180.335 111.262 182.089 111.988C183.843 112.715 185.343 113.945 186.397 115.524C187.452 117.103 188.015 118.959 188.015 120.858C188.015 123.404 187.004 125.845 185.203 127.646C183.403 129.446 180.961 130.458 178.415 130.458Z" fill="#FAFAFA"/>
<path d="M178.415 130.453C183.715 130.453 188.011 126.157 188.011 120.857C188.011 115.558 183.715 111.261 178.415 111.261C173.116 111.261 168.819 115.558 168.819 120.857C168.819 126.157 173.116 130.453 178.415 130.453Z" fill="#FA1239"/>
<path opacity="0.2" d="M178.415 130.453C183.715 130.453 188.011 126.157 188.011 120.857C188.011 115.558 183.715 111.261 178.415 111.261C173.116 111.261 168.819 115.558 168.819 120.857C168.819 126.157 173.116 130.453 178.415 130.453Z" fill="black"/>
<path d="M176.923 126.929L171.291 121.297L172.707 119.885L176.923 124.101L184.127 116.897L185.539 118.313L176.923 126.929Z" fill="#FAFAFA"/>
</svg>
